<?xml version="1.0" encoding="UTF-8" standalone="no"?><svg xmlns="http://www.w3.org/2000/svg" xmlns:xlink="http://www.w3.org/1999/xlink" clip-rule="evenodd" stroke-miterlimit="10" viewBox="0 0 1920 1080"><desc>SVG generated by Keynote</desc><defs></defs><g transform="matrix(1.00, 0.00, -0.00, -1.00, 0.0, 1080.0)"><path d="M 0.0 1080.0 L 1920.0 1080.0 L 1920.0 0.0 L 0.0 0.0 Z M 0.0 1080.0 " fill="#000000"></path><image xlink:href="../../FF773D71-CE92-40F2-A083-39C6F8B049A9/assets/D1FD2F3B26C505973F97E002A92DD690.png" width="1130.00" height="844.00" transform="matrix(1.76, 0.00, -0.00, -1.76, -59.0, 1084.0)"></image><path d="M 270.5 107.0 L 263.8 184.1 C 261.6 210.2 280.9 233.2 307.1 235.5 L 671.1 267.0 C 697.2 269.2 720.2 249.9 722.5 223.7 L 729.1 146.7 C 731.4 120.5 712.0 97.5 685.9 95.2 L 321.9 63.8 C 295.8 61.5 272.8 80.9 270.5 107.0 Z M 270.5 107.0 " fill="#000000" fill-opacity="0.78"></path><g><clipPath id="clip0x6000058b8ea0"><path d="M 242.0 229.9 L 736.1 272.6 L 751.0 100.9 L 256.8 58.1 Z M 242.0 229.9 "></path></clipPath><g clip-path="url(#clip0x6000058b8ea0)"><text xml:space="preserve" font-family="Lora-Italic,Lora" font-style="italic" font-size="84.0" fill="#FEFFFF" transform="matrix(1.00, 0.09, 0.09, -1.00, 335.7, 122.4)">B</text><text xml:space="preserve" font-family="Lora-Italic,Lora" font-style="italic" font-size="84.0" fill="#FEFFFF" transform="matrix(1.00, 0.09, 0.09, -1.00, 387.4, 126.9)">e</text><text xml:space="preserve" font-family="Lora-Italic,Lora" font-style="italic" font-size="84.0" fill="#FEFFFF" transform="matrix(1.00, 0.09, 0.09, -1.00, 427.3, 130.4)">s</text><text xml:space="preserve" font-family="Lora-Italic,Lora" font-style="italic" font-size="84.0" fill="#FEFFFF" transform="matrix(1.00, 0.09, 0.09, -1.00, 463.0, 133.5)">t</text><text xml:space="preserve" font-family="Lora-Italic,Lora" font-style="italic" font-size="84.0" fill="#FEFFFF" transform="matrix(1.00, 0.09, 0.09, -1.00, 493.6, 136.1)"> </text><text xml:space="preserve" font-family="Lora-Italic,Lora" font-style="italic" font-size="84.0" fill="#FEFFFF" transform="matrix(1.00, 0.09, 0.09, -1.00, 515.7, 138.0)">A</text><text xml:space="preserve" font-family="Lora-Italic,Lora" font-style="italic" font-size="84.0" fill="#FEFFFF" transform="matrix(1.00, 0.09, 0.09, -1.00, 566.8, 142.4)">p</text><text xml:space="preserve" font-family="Lora-Italic,Lora" font-style="italic" font-size="84.0" fill="#FEFFFF" transform="matrix(1.00, 0.09, 0.09, -1.00, 614.6, 146.6)">p</text><text xml:space="preserve" font-family="Lora-Italic,Lora" font-style="italic" font-size="84.0" fill="#FEFFFF" transform="matrix(1.00, 0.09, 0.09, -1.00, 662.3, 150.7)"> </text></g></g><path d="M 64.2 832.5 L 64.0 983.5 C 64.0 1009.7 85.5 1031.0 111.7 1031.0 L 722.3 1031.0 C 748.5 1031.0 770.0 1009.7 770.0 983.5 L 770.0 832.5 C 770.0 806.3 748.5 785.0 722.3 785.0 L 111.7 785.0 C 85.5 785.0 64.2 806.3 64.2 832.5 Z M 64.2 832.5 " fill="#000000" fill-opacity="0.78"></path><g><clipPath id="clip0x6000058b32c0"><path d="M 27.9 774.2 L 806.1 774.2 L 806.1 1042.5 L 27.9 1042.5 Z M 27.9 774.2 "></path></clipPath><g clip-path="url(#clip0x6000058b32c0)"><text xml:space="preserve" font-family="SourceSansPro-Black,Source Sans Pro" font-weight="bold" font-size="142.0" fill="#FEFFFF" transform="matrix(1.00, 0.00, -0.00, -1.00, 145.2, 857.6)">A</text><text xml:space="preserve" font-family="SourceSansPro-Black,Source Sans Pro" font-weight="bold" font-size="142.0" fill="#FEFFFF" transform="matrix(1.00, 0.00, -0.00, -1.00, 228.1, 857.6)">W</text><text xml:space="preserve" font-family="SourceSansPro-Black,Source Sans Pro" font-weight="bold" font-size="142.0" fill="#FEFFFF" transform="matrix(1.00, 0.00, -0.00, -1.00, 345.2, 857.6)">A</text><text xml:space="preserve" font-family="SourceSansPro-Black,Source Sans Pro" font-weight="bold" font-size="142.0" fill="#FEFFFF" transform="matrix(1.00, 0.00, -0.00, -1.00, 428.1, 857.6)">R</text><text xml:space="preserve" font-family="SourceSansPro-Black,Source Sans Pro" font-weight="bold" font-size="142.0" fill="#FEFFFF" transform="matrix(1.00, 0.00, -0.00, -1.00, 517.5, 857.6)">D</text><text xml:space="preserve" font-family="SourceSansPro-Black,Source Sans Pro" font-weight="bold" font-size="142.0" fill="#FEFFFF" transform="matrix(1.00, 0.00, -0.00, -1.00, 608.7, 857.6)">S</text></g></g><path d="M 735.1 170.5 L 733.4 247.9 C 732.8 274.1 753.6 295.8 779.8 296.4 L 1224.4 306.2 C 1250.6 306.8 1272.3 286.0 1272.9 259.7 L 1274.6 182.4 C 1275.2 156.2 1254.4 134.5 1228.2 133.9 L 783.6 124.1 C 757.4 123.5 735.6 144.3 735.1 170.5 Z M 735.1 170.5 " fill="#000000" fill-opacity="0.78"></path><g><clipPath id="clip0x6000058af960"><path d="M 714.5 295.0 L 1289.7 307.6 L 1293.5 135.3 L 718.3 122.7 Z M 714.5 295.0 "></path></clipPath><g clip-path="url(#clip0x6000058af960)"><text xml:space="preserve" font-family="Lora-Italic,Lora" font-style="italic" font-size="84.0" fill="#FEFFFF" transform="matrix(1.00, 0.02, 0.02, -1.00, 782.7, 181.4)">T</text><text xml:space="preserve" font-family="Lora-Italic,Lora" font-style="italic" font-size="84.0" fill="#FEFFFF" transform="matrix(1.00, 0.02, 0.02, -1.00, 831.9, 182.4)">o</text><text xml:space="preserve" font-family="Lora-Italic,Lora" font-style="italic" font-size="84.0" fill="#FEFFFF" transform="matrix(1.00, 0.02, 0.02, -1.00, 875.8, 183.4)">p</text><text xml:space="preserve" font-family="Lora-Italic,Lora" font-style="italic" font-size="84.0" fill="#FEFFFF" transform="matrix(1.00, 0.02, 0.02, -1.00, 923.7, 184.5)"> </text><text xml:space="preserve" font-family="Lora-Italic,Lora" font-style="italic" font-size="84.0" fill="#FEFFFF" transform="matrix(1.00, 0.02, 0.02, -1.00, 945.8, 184.9)">O</text><text xml:space="preserve" font-family="Lora-Italic,Lora" font-style="italic" font-size="84.0" fill="#FEFFFF" transform="matrix(1.00, 0.02, 0.02, -1.00, 1012.0, 186.4)">v</text><text xml:space="preserve" font-family="Lora-Italic,Lora" font-style="italic" font-size="84.0" fill="#FEFFFF" transform="matrix(1.00, 0.02, 0.02, -1.00, 1056.3, 187.4)">e</text><text xml:space="preserve" font-family="Lora-Italic,Lora" font-style="italic" font-size="84.0" fill="#FEFFFF" transform="matrix(1.00, 0.02, 0.02, -1.00, 1096.3, 188.3)">r</text><text xml:space="preserve" font-family="Lora-Italic,Lora" font-style="italic" font-size="84.0" fill="#FEFFFF" transform="matrix(1.00, 0.02, 0.02, -1.00, 1133.1, 189.1)">a</text><text xml:space="preserve" font-family="Lora-Italic,Lora" font-style="italic" font-size="84.0" fill="#FEFFFF" transform="matrix(1.00, 0.02, 0.02, -1.00, 1179.2, 190.1)">l</text><text xml:space="preserve" font-family="Lora-Italic,Lora" font-style="italic" font-size="84.0" fill="#FEFFFF" transform="matrix(1.00, 0.02, 0.02, -1.00, 1202.9, 190.6)">l</text><text xml:space="preserve" font-family="Lora-Italic,Lora" font-style="italic" font-size="84.0" fill="#FEFFFF" transform="matrix(1.00, 0.02, 0.02, -1.00, 1226.5, 191.1)"> </text></g></g><path d="M 1294.9 186.2 L 1298.2 263.5 C 1299.3 289.7 1321.4 310.1 1347.6 309.0 L 1759.3 291.5 C 1785.5 290.4 1805.8 268.3 1804.7 242.1 L 1801.4 164.8 C 1800.3 138.6 1778.2 118.2 1752.0 119.4 L 1340.3 136.8 C 1314.1 137.9 1293.8 160.0 1294.9 186.2 Z M 1294.9 186.2 " fill="#000000" fill-opacity="0.78"></path><g><clipPath id="clip0x6000058b7ee0"><path d="M 1282.4 311.7 L 1824.5 288.8 L 1817.2 116.6 L 1275.1 139.5 Z M 1282.4 311.7 "></path></clipPath><g clip-path="url(#clip0x6000058b7ee0)"><text xml:space="preserve" font-family="Lora-Italic,Lora" font-style="italic" font-size="84.0" fill="#FEFFFF" transform="matrix(1.00, -0.04, -0.04, -1.00, 1347.0, 193.8)">B</text><text xml:space="preserve" font-family="Lora-Italic,Lora" font-style="italic" font-size="84.0" fill="#FEFFFF" transform="matrix(1.00, -0.04, -0.04, -1.00, 1398.9, 191.6)">e</text><text xml:space="preserve" font-family="Lora-Italic,Lora" font-style="italic" font-size="84.0" fill="#FEFFFF" transform="matrix(1.00, -0.04, -0.04, -1.00, 1438.8, 189.9)">s</text><text xml:space="preserve" font-family="Lora-Italic,Lora" font-style="italic" font-size="84.0" fill="#FEFFFF" transform="matrix(1.00, -0.04, -0.04, -1.00, 1474.7, 188.4)">t</text><text xml:space="preserve" font-family="Lora-Italic,Lora" font-style="italic" font-size="84.0" fill="#FEFFFF" transform="matrix(1.00, -0.04, -0.04, -1.00, 1505.3, 187.1)"> </text><text xml:space="preserve" font-family="Lora-Italic,Lora" font-style="italic" font-size="84.0" fill="#FEFFFF" transform="matrix(1.00, -0.04, -0.04, -1.00, 1527.4, 186.2)">G</text><text xml:space="preserve" font-family="Lora-Italic,Lora" font-style="italic" font-size="84.0" fill="#FEFFFF" transform="matrix(1.00, -0.04, -0.04, -1.00, 1590.7, 183.5)">a</text><text xml:space="preserve" font-family="Lora-Italic,Lora" font-style="italic" font-size="84.0" fill="#FEFFFF" transform="matrix(1.00, -0.04, -0.04, -1.00, 1636.7, 181.5)">m</text><text xml:space="preserve" font-family="Lora-Italic,Lora" font-style="italic" font-size="84.0" fill="#FEFFFF" transform="matrix(1.00, -0.04, -0.04, -1.00, 1710.2, 178.4)">e</text><text xml:space="preserve" font-family="Lora-Italic,Lora" font-style="italic" font-size="84.0" fill="#FEFFFF" transform="matrix(1.00, -0.04, -0.04, -1.00, 1750.2, 176.8)"> </text></g></g><path d="M 1061.5 931.6 L 1063.0 1008.9 C 1063.5 1035.1 1085.2 1056.0 1111.4 1055.5 L 1855.7 1040.8 C 1881.9 1040.3 1902.8 1018.6 1902.3 992.4 L 1900.7 915.1 C 1900.2 888.9 1878.5 868.0 1852.3 868.5 L 1108.0 883.2 C 1081.8 883.7 1061.0 905.4 1061.5 931.6 Z M 1061.5 931.6 " fill="#000000" fill-opacity="0.78"></path><g><clipPath id="clip0x6080056b0500"><path d="M 1046.1 1056.8 L 1921.0 1039.6 L 1917.6 867.2 L 1042.7 884.4 Z M 1046.1 1056.8 "></path></clipPath><g clip-path="url(#clip0x6080056b0500)"><text xml:space="preserve" font-family="Lora-Italic,Lora" font-style="italic" font-size="84.0" fill="#FEFFFF" transform="matrix(1.00, -0.02, -0.02, -1.00, 1116.1, 940.3)">+</text><text xml:space="preserve" font-family="Lora-Italic,Lora" font-style="italic" font-size="84.0" fill="#FEFFFF" transform="matrix(1.00, -0.02, -0.02, -1.00, 1159.1, 939.4)"> </text><text xml:space="preserve" font-family="Lora-Italic,Lora" font-style="italic" font-size="84.0" fill="#FEFFFF" transform="matrix(1.00, -0.02, -0.02, -1.00, 1181.2, 939.0)">B</text><text xml:space="preserve" font-family="Lora-Italic,Lora" font-style="italic" font-size="84.0" fill="#FEFFFF" transform="matrix(1.00, -0.02, -0.02, -1.00, 1233.1, 938.0)">e</text><text xml:space="preserve" font-family="Lora-Italic,Lora" font-style="italic" font-size="84.0" fill="#FEFFFF" transform="matrix(1.00, -0.02, -0.02, -1.00, 1273.1, 937.2)">s</text><text xml:space="preserve" font-family="Lora-Italic,Lora" font-style="italic" font-size="84.0" fill="#FEFFFF" transform="matrix(1.00, -0.02, -0.02, -1.00, 1309.0, 936.5)">t</text><text xml:space="preserve" font-family="Lora-Italic,Lora" font-style="italic" font-size="84.0" fill="#FEFFFF" transform="matrix(1.00, -0.02, -0.02, -1.00, 1339.7, 935.9)"> </text><text xml:space="preserve" font-family="Lora-Italic,Lora" font-style="italic" font-size="84.0" fill="#FEFFFF" transform="matrix(1.00, -0.02, -0.02, -1.00, 1361.8, 935.5)">C</text><text xml:space="preserve" font-family="Lora-Italic,Lora" font-style="italic" font-size="84.0" fill="#FEFFFF" transform="matrix(1.00, -0.02, -0.02, -1.00, 1419.4, 934.3)">i</text><text xml:space="preserve" font-family="Lora-Italic,Lora" font-style="italic" font-size="84.0" fill="#FEFFFF" transform="matrix(1.00, -0.02, -0.02, -1.00, 1446.6, 933.8)">v</text><text xml:space="preserve" font-family="Lora-Italic,Lora" font-style="italic" font-size="84.0" fill="#FEFFFF" transform="matrix(1.00, -0.02, -0.02, -1.00, 1490.8, 932.9)">i</text><text xml:space="preserve" font-family="Lora-Italic,Lora" font-style="italic" font-size="84.0" fill="#FEFFFF" transform="matrix(1.00, -0.02, -0.02, -1.00, 1518.0, 932.4)">c</text><text xml:space="preserve" font-family="Lora-Italic,Lora" font-style="italic" font-size="84.0" fill="#FEFFFF" transform="matrix(1.00, -0.02, -0.02, -1.00, 1557.7, 931.6)"> </text><text xml:space="preserve" font-family="Lora-Italic,Lora" font-style="italic" font-size="84.0" fill="#FEFFFF" transform="matrix(1.00, -0.02, -0.02, -1.00, 1579.8, 931.2)">P</text><text xml:space="preserve" font-family="Lora-Italic,Lora" font-style="italic" font-size="84.0" fill="#FEFFFF" transform="matrix(1.00, -0.02, -0.02, -1.00, 1629.9, 930.2)">r</text><text xml:space="preserve" font-family="Lora-Italic,Lora" font-style="italic" font-size="84.0" fill="#FEFFFF" transform="matrix(1.00, -0.02, -0.02, -1.00, 1667.3, 929.4)">o</text><text xml:space="preserve" font-family="Lora-Italic,Lora" font-style="italic" font-size="84.0" fill="#FEFFFF" transform="matrix(1.00, -0.02, -0.02, -1.00, 1711.1, 928.6)">j</text><text xml:space="preserve" font-family="Lora-Italic,Lora" font-style="italic" font-size="84.0" fill="#FEFFFF" transform="matrix(1.00, -0.02, -0.02, -1.00, 1736.2, 928.1)">e</text><text xml:space="preserve" font-family="Lora-Italic,Lora" font-style="italic" font-size="84.0" fill="#FEFFFF" transform="matrix(1.00, -0.02, -0.02, -1.00, 1776.1, 927.3)">c</text><text xml:space="preserve" font-family="Lora-Italic,Lora" font-style="italic" font-size="84.0" fill="#FEFFFF" transform="matrix(1.00, -0.02, -0.02, -1.00, 1815.9, 926.5)">t</text><text xml:space="preserve" font-family="Lora-Italic,Lora" font-style="italic" font-size="84.0" fill="#FEFFFF" transform="matrix(1.00, -0.02, -0.02, -1.00, 1846.5, 925.9)"> </text></g></g></g></svg>