<?xml version="1.0" encoding="UTF-8" standalone="no"?><svg xmlns="http://www.w3.org/2000/svg" xmlns:xlink="http://www.w3.org/1999/xlink" clip-rule="evenodd" stroke-miterlimit="10" viewBox="0 0 1920 1080"><desc>SVG generated by Keynote</desc><defs></defs><g transform="matrix(1.00, 0.00, -0.00, -1.00, 0.0, 1080.0)"><path d="M 0.0 1080.0 L 1920.0 1080.0 L 1920.0 0.0 L 0.0 0.0 Z M 0.0 1080.0 " fill="#FEFFFF"></path><text xml:space="preserve" font-family="SourceSansPro-Black,Source Sans Pro" font-weight="bold" font-size="142.0" fill="#000000" transform="matrix(1.00, 0.00, -0.00, -1.00, 339.0, 839.6)">G</text><text xml:space="preserve" font-family="SourceSansPro-Black,Source Sans Pro" font-weight="bold" font-size="142.0" fill="#000000" transform="matrix(1.00, 0.00, -0.00, -1.00, 430.8, 839.6)">L</text><text xml:space="preserve" font-family="SourceSansPro-Black,Source Sans Pro" font-weight="bold" font-size="142.0" fill="#000000" transform="matrix(1.00, 0.00, -0.00, -1.00, 500.3, 839.6)">O</text><text xml:space="preserve" font-family="SourceSansPro-Black,Source Sans Pro" font-weight="bold" font-size="142.0" fill="#000000" transform="matrix(1.00, 0.00, -0.00, -1.00, 598.6, 839.6)">B</text><text xml:space="preserve" font-family="SourceSansPro-Black,Source Sans Pro" font-weight="bold" font-size="142.0" fill="#000000" transform="matrix(1.00, 0.00, -0.00, -1.00, 685.5, 839.6)">A</text><text xml:space="preserve" font-family="SourceSansPro-Black,Source Sans Pro" font-weight="bold" font-size="142.0" fill="#000000" transform="matrix(1.00, 0.00, -0.00, -1.00, 768.4, 839.6)">L</text><text xml:space="preserve" font-family="SourceSansPro-Black,Source Sans Pro" font-weight="bold" font-size="142.0" fill="#000000" transform="matrix(1.00, 0.00, -0.00, -1.00, 843.7, 839.6)"> </text><text xml:space="preserve" font-family="SourceSansPro-Black,Source Sans Pro" font-weight="bold" font-size="142.0" fill="#000000" transform="matrix(1.00, 0.00, -0.00, -1.00, 873.5, 839.6)">S</text><text xml:space="preserve" font-family="SourceSansPro-Black,Source Sans Pro" font-weight="bold" font-size="142.0" fill="#000000" transform="matrix(1.00, 0.00, -0.00, -1.00, 953.6, 839.6)">P</text><text xml:space="preserve" font-family="SourceSansPro-Black,Source Sans Pro" font-weight="bold" font-size="142.0" fill="#000000" transform="matrix(1.00, 0.00, -0.00, -1.00, 1041.4, 839.6)">O</text><text xml:space="preserve" font-family="SourceSansPro-Black,Source Sans Pro" font-weight="bold" font-size="142.0" fill="#000000" transform="matrix(1.00, 0.00, -0.00, -1.00, 1139.6, 839.6)">N</text><text xml:space="preserve" font-family="SourceSansPro-Black,Source Sans Pro" font-weight="bold" font-size="142.0" fill="#000000" transform="matrix(1.00, 0.00, -0.00, -1.00, 1235.1, 839.6)">S</text><text xml:space="preserve" font-family="SourceSansPro-Black,Source Sans Pro" font-weight="bold" font-size="142.0" fill="#000000" transform="matrix(1.00, 0.00, -0.00, -1.00, 1315.1, 839.6)">O</text><text xml:space="preserve" font-family="SourceSansPro-Black,Source Sans Pro" font-weight="bold" font-size="142.0" fill="#000000" transform="matrix(1.00, 0.00, -0.00, -1.00, 1413.4, 839.6)">R</text><text xml:space="preserve" font-family="SourceSansPro-Black,Source Sans Pro" font-weight="bold" font-size="142.0" fill="#000000" transform="matrix(1.00, 0.00, -0.00, -1.00, 1500.9, 839.6)">S</text><image xlink:href="36E53929C71D3B80523D159ED69AAC5D.png" width="688.00" height="386.00" transform="matrix(0.81, 0.00, -0.00, -0.81, 225.0, 733.2)"></image><image xlink:href="C2F4136B26BC7BD2536DFC318C0E13BE.png" width="1364.00" height="266.00" transform="matrix(0.59, 0.00, -0.00, -0.59, 903.4, 655.0)"></image><image xlink:href="B106AAA6D8E83709EC3AD306048AF977.jpeg" width="1245.00" height="525.00" transform="matrix(0.60, 0.00, -0.00, -0.60, 589.4, 420.7)"></image></g></svg>