<?xml version="1.0" encoding="UTF-8" standalone="no"?><svg xmlns="http://www.w3.org/2000/svg" xmlns:xlink="http://www.w3.org/1999/xlink" clip-rule="evenodd" stroke-miterlimit="10" viewBox="0 0 1920 1080"><desc>SVG generated by Keynote</desc><defs></defs><g transform="matrix(1.00, 0.00, -0.00, -1.00, 0.0, 1080.0)"><path d="M 0.0 1080.0 L 1920.0 1080.0 L 1920.0 0.0 L 0.0 0.0 Z M 0.0 1080.0 " fill="#000000"></path><image xlink:href="../../A0250687-558B-4F22-9296-C0EE588C5121/assets/0CC6E824234A482C9C68BE69CD54ADEB.png" width="1130.00" height="844.00" transform="matrix(1.75, 0.00, -0.00, -1.75, -28.0, 1442.0)"></image><path d="M 440.2 814.5 L 440.0 965.5 C 440.0 991.7 461.5 1013.0 487.7 1013.0 L 1432.3 1013.0 C 1458.5 1013.0 1480.0 991.7 1480.0 965.5 L 1480.0 814.5 C 1480.0 788.3 1458.5 767.0 1432.3 767.0 L 487.7 767.0 C 461.5 767.0 440.2 788.3 440.2 814.5 Z M 440.2 814.5 " fill="#000000" fill-opacity="0.78"></path><g><clipPath id="clip0x6080054b9bc0"><path d="M 403.9 756.2 L 1516.1 756.2 L 1516.1 1024.5 L 403.9 1024.5 Z M 403.9 756.2 "></path></clipPath><g clip-path="url(#clip0x6080054b9bc0)"><text xml:space="preserve" font-family="SourceSansPro-Black,Source Sans Pro" font-weight="bold" font-size="142.0" fill="#FEFFFF" transform="matrix(1.00, 0.00, -0.00, -1.00, 617.5, 839.6)">H</text><text xml:space="preserve" font-family="SourceSansPro-Black,Source Sans Pro" font-weight="bold" font-size="142.0" fill="#FEFFFF" transform="matrix(1.00, 0.00, -0.00, -1.00, 714.3, 839.6)">A</text><text xml:space="preserve" font-family="SourceSansPro-Black,Source Sans Pro" font-weight="bold" font-size="142.0" fill="#FEFFFF" transform="matrix(1.00, 0.00, -0.00, -1.00, 794.4, 839.6)">V</text><text xml:space="preserve" font-family="SourceSansPro-Black,Source Sans Pro" font-weight="bold" font-size="142.0" fill="#FEFFFF" transform="matrix(1.00, 0.00, -0.00, -1.00, 875.7, 839.6)">E</text><text xml:space="preserve" font-family="SourceSansPro-Black,Source Sans Pro" font-weight="bold" font-size="142.0" fill="#FEFFFF" transform="matrix(1.00, 0.00, -0.00, -1.00, 954.6, 839.6)"> </text><text xml:space="preserve" font-family="SourceSansPro-Black,Source Sans Pro" font-weight="bold" font-size="142.0" fill="#FEFFFF" transform="matrix(1.00, 0.00, -0.00, -1.00, 984.4, 839.6)">F</text><text xml:space="preserve" font-family="SourceSansPro-Black,Source Sans Pro" font-weight="bold" font-size="142.0" fill="#FEFFFF" transform="matrix(1.00, 0.00, -0.00, -1.00, 1060.5, 839.6)">U</text><text xml:space="preserve" font-family="SourceSansPro-Black,Source Sans Pro" font-weight="bold" font-size="142.0" fill="#FEFFFF" transform="matrix(1.00, 0.00, -0.00, -1.00, 1156.0, 839.6)">N</text><text xml:space="preserve" font-family="SourceSansPro-Black,Source Sans Pro" font-weight="bold" font-size="142.0" fill="#FEFFFF" transform="matrix(1.00, 0.00, -0.00, -1.00, 1251.4, 839.6)">!</text></g></g></g></svg>