<?xml version="1.0" encoding="UTF-8" standalone="no"?><svg xmlns="http://www.w3.org/2000/svg" xmlns:xlink="http://www.w3.org/1999/xlink" clip-rule="evenodd" stroke-miterlimit="10" viewBox="0 0 1920 1080"><desc>SVG generated by Keynote</desc><defs></defs><g transform="matrix(1.00, 0.00, -0.00, -1.00, 0.0, 1080.0)"><path d="M 0.0 1080.0 L 1920.0 1080.0 L 1920.0 0.0 L 0.0 0.0 Z M 0.0 1080.0 " fill="#000000"></path><image xlink:href="E26CD1A9F238DD1B87219A0E4F193962.png" width="1130.00" height="844.00" transform="matrix(1.71, 0.00, -0.00, -1.71, -8.0, 1415.7)"></image><path d="M 266.8 113.2 L 267.0 263.9 C 267.0 290.1 288.1 311.0 314.3 311.0 L 1605.7 311.0 C 1631.9 311.0 1653.0 290.1 1653.0 263.9 L 1653.0 113.2 C 1653.0 86.9 1631.9 66.0 1605.7 66.0 L 314.3 66.0 C 288.1 66.0 266.8 86.9 266.8 113.2 Z M 266.8 113.2 " fill="#000000" fill-opacity="0.78"></path><g><clipPath id="clip0x6000058be540"><path d="M 230.5 52.6 L 1689.5 52.6 L 1689.5 322.9 L 230.5 322.9 Z M 230.5 52.6 "></path></clipPath><g clip-path="url(#clip0x6000058be540)"><text xml:space="preserve" font-family="SourceSansPro-Black,Source Sans Pro" font-weight="bold" font-size="142.0" fill="#FEFFFF" transform="matrix(1.00, 0.00, -0.00, -1.00, 399.0, 138.0)">P</text><text xml:space="preserve" font-family="SourceSansPro-Black,Source Sans Pro" font-weight="bold" font-size="142.0" fill="#FEFFFF" transform="matrix(1.00, 0.00, -0.00, -1.00, 486.7, 138.0)">I</text><text xml:space="preserve" font-family="SourceSansPro-Black,Source Sans Pro" font-weight="bold" font-size="142.0" fill="#FEFFFF" transform="matrix(1.00, 0.00, -0.00, -1.00, 531.6, 138.0)">T</text><text xml:space="preserve" font-family="SourceSansPro-Black,Source Sans Pro" font-weight="bold" font-size="142.0" fill="#FEFFFF" transform="matrix(1.00, 0.00, -0.00, -1.00, 607.4, 138.0)">C</text><text xml:space="preserve" font-family="SourceSansPro-Black,Source Sans Pro" font-weight="bold" font-size="142.0" fill="#FEFFFF" transform="matrix(1.00, 0.00, -0.00, -1.00, 690.6, 138.0)">H</text><text xml:space="preserve" font-family="SourceSansPro-Black,Source Sans Pro" font-weight="bold" font-size="142.0" fill="#FEFFFF" transform="matrix(1.00, 0.00, -0.00, -1.00, 787.5, 138.0)"> </text><text xml:space="preserve" font-family="Lora-Italic,Lora" font-style="italic" font-size="142.0" fill="#FEFFFF" transform="matrix(1.00, 0.00, -0.00, -1.00, 817.3, 138.0)">y</text><text xml:space="preserve" font-family="Lora-Italic,Lora" font-style="italic" font-size="142.0" fill="#FEFFFF" transform="matrix(1.00, 0.00, -0.00, -1.00, 890.3, 138.0)">o</text><text xml:space="preserve" font-family="Lora-Italic,Lora" font-style="italic" font-size="142.0" fill="#FEFFFF" transform="matrix(1.00, 0.00, -0.00, -1.00, 964.4, 138.0)">u</text><text xml:space="preserve" font-family="Lora-Italic,Lora" font-style="italic" font-size="142.0" fill="#FEFFFF" transform="matrix(1.00, 0.00, -0.00, -1.00, 1048.7, 138.0)">r</text><text xml:space="preserve" font-family="SourceSansPro-Black,Source Sans Pro" font-weight="bold" font-size="142.0" fill="#FEFFFF" transform="matrix(1.00, 0.00, -0.00, -1.00, 1113.2, 138.0)"> </text><text xml:space="preserve" font-family="SourceSansPro-Black,Source Sans Pro" font-weight="bold" font-size="142.0" fill="#FEFFFF" transform="matrix(1.00, 0.00, -0.00, -1.00, 1143.0, 138.0)">I</text><text xml:space="preserve" font-family="SourceSansPro-Black,Source Sans Pro" font-weight="bold" font-size="142.0" fill="#FEFFFF" transform="matrix(1.00, 0.00, -0.00, -1.00, 1187.9, 138.0)">D</text><text xml:space="preserve" font-family="SourceSansPro-Black,Source Sans Pro" font-weight="bold" font-size="142.0" fill="#FEFFFF" transform="matrix(1.00, 0.00, -0.00, -1.00, 1279.1, 138.0)">E</text><text xml:space="preserve" font-family="SourceSansPro-Black,Source Sans Pro" font-weight="bold" font-size="142.0" fill="#FEFFFF" transform="matrix(1.00, 0.00, -0.00, -1.00, 1358.0, 138.0)">A</text><text xml:space="preserve" font-family="SourceSansPro-Black,Source Sans Pro" font-weight="bold" font-size="142.0" fill="#FEFFFF" transform="matrix(1.00, 0.00, -0.00, -1.00, 1441.0, 138.0)">S</text></g></g></g></svg>