<?xml version="1.0" encoding="UTF-8" standalone="no"?><svg xmlns="http://www.w3.org/2000/svg" xmlns:xlink="http://www.w3.org/1999/xlink" clip-rule="evenodd" stroke-miterlimit="10" viewBox="0 0 1920 1080"><desc>SVG generated by Keynote</desc><defs></defs><g transform="matrix(1.00, 0.00, -0.00, -1.00, 0.0, 1080.0)"><path d="M 0.0 1080.0 L 1920.0 1080.0 L 1920.0 0.0 L 0.0 0.0 Z M 0.0 1080.0 " fill="#000000"></path><g><clipPath id="clip0x600005ab5f00"><path d="M -21.0 1198.0 L 1955.0 1198.0 L 1955.0 -120.0 L -21.0 -120.0 Z M -21.1 1197.6 "></path></clipPath><g clip-path="url(#clip0x600005ab5f00)"><image xlink:href="E60FE94FCFA51ADA3F8D02892B78F90F.jpeg" width="900.00" height="600.00" transform="matrix(2.20, 0.00, -0.00, -2.20, -21.1, 1199.3)"></image></g></g><path d="M 440.2 119.2 L 440.0 403.8 C 440.0 430.1 461.5 451.0 487.7 451.0 L 1432.3 451.0 C 1458.5 451.0 1480.0 430.1 1480.0 403.8 L 1480.0 119.2 C 1480.0 92.9 1458.5 72.0 1432.3 72.0 L 487.7 72.0 C 461.5 72.0 440.2 92.9 440.2 119.2 Z M 440.2 119.2 " fill="#000000" fill-opacity="0.78"></path><g><clipPath id="clip0x600005aabfa0"><path d="M 420.0 71.7 L 1500.0 71.7 L 1500.0 490.3 L 420.0 490.3 Z M 420.0 71.7 "></path></clipPath><g clip-path="url(#clip0x600005aabfa0)"><text xml:space="preserve" font-family="SourceSansPro-Black,Source Sans Pro" font-weight="bold" font-size="142.0" fill="#FEFFFF" transform="matrix(1.00, 0.00, -0.00, -1.00, 637.9, 305.5)">C</text><text xml:space="preserve" font-family="SourceSansPro-Black,Source Sans Pro" font-weight="bold" font-size="142.0" fill="#FEFFFF" transform="matrix(1.00, 0.00, -0.00, -1.00, 715.5, 305.5)">O</text><text xml:space="preserve" font-family="SourceSansPro-Black,Source Sans Pro" font-weight="bold" font-size="142.0" fill="#FEFFFF" transform="matrix(1.00, 0.00, -0.00, -1.00, 813.7, 305.5)">D</text><text xml:space="preserve" font-family="SourceSansPro-Black,Source Sans Pro" font-weight="bold" font-size="142.0" fill="#FEFFFF" transform="matrix(1.00, 0.00, -0.00, -1.00, 904.9, 305.5)">E</text><text xml:space="preserve" font-family="SourceSansPro-Black,Source Sans Pro" font-weight="bold" font-size="142.0" fill="#FEFFFF" transform="matrix(1.00, 0.00, -0.00, -1.00, 983.8, 305.5)">D</text><text xml:space="preserve" font-family="SourceSansPro-Black,Source Sans Pro" font-weight="bold" font-size="142.0" fill="#FEFFFF" transform="matrix(1.00, 0.00, -0.00, -1.00, 1073.6, 305.5)">A</text><text xml:space="preserve" font-family="SourceSansPro-Black,Source Sans Pro" font-weight="bold" font-size="142.0" fill="#FEFFFF" transform="matrix(1.00, 0.00, -0.00, -1.00, 1153.7, 305.5)">Y</text><text xml:space="preserve" font-family="SourceSansPro-Black,Source Sans Pro" font-weight="bold" font-size="142.0" fill="#FEFFFF" transform="matrix(1.00, 0.00, -0.00, -1.00, 1230.9, 305.5)">!</text><text xml:space="preserve" font-family="SourceSansPro-Black,Source Sans Pro" font-weight="bold" font-size="142.0" fill="#FEFFFF" transform="matrix(1.00, 0.00, -0.00, -1.00, 1282.0, 305.5)"> </text><text xml:space="preserve" font-family="Lora-Italic,Lora" font-style="italic" font-size="84.0" fill="#FEFFFF" transform="matrix(1.00, 0.00, -0.00, -1.00, 652.1, 201.4)">B</text><text xml:space="preserve" font-family="Lora-Italic,Lora" font-style="italic" font-size="84.0" fill="#FEFFFF" transform="matrix(1.00, 0.00, -0.00, -1.00, 704.1, 201.4)">u</text><text xml:space="preserve" font-family="Lora-Italic,Lora" font-style="italic" font-size="84.0" fill="#FEFFFF" transform="matrix(1.00, 0.00, -0.00, -1.00, 753.9, 201.4)">i</text><text xml:space="preserve" font-family="Lora-Italic,Lora" font-style="italic" font-size="84.0" fill="#FEFFFF" transform="matrix(1.00, 0.00, -0.00, -1.00, 781.1, 201.4)">l</text><text xml:space="preserve" font-family="Lora-Italic,Lora" font-style="italic" font-size="84.0" fill="#FEFFFF" transform="matrix(1.00, 0.00, -0.00, -1.00, 804.8, 201.4)">d</text><text xml:space="preserve" font-family="Lora-Italic,Lora" font-style="italic" font-size="84.0" fill="#FEFFFF" transform="matrix(1.00, 0.00, -0.00, -1.00, 851.4, 201.4)"> </text><text xml:space="preserve" font-family="Lora-Italic,Lora" font-style="italic" font-size="84.0" fill="#FEFFFF" transform="matrix(1.00, 0.00, -0.00, -1.00, 873.5, 201.4)">s</text><text xml:space="preserve" font-family="Lora-Italic,Lora" font-style="italic" font-size="84.0" fill="#FEFFFF" transform="matrix(1.00, 0.00, -0.00, -1.00, 909.4, 201.4)">o</text><text xml:space="preserve" font-family="Lora-Italic,Lora" font-style="italic" font-size="84.0" fill="#FEFFFF" transform="matrix(1.00, 0.00, -0.00, -1.00, 953.3, 201.4)">m</text><text xml:space="preserve" font-family="Lora-Italic,Lora" font-style="italic" font-size="84.0" fill="#FEFFFF" transform="matrix(1.00, 0.00, -0.00, -1.00, 1026.9, 201.4)">e</text><text xml:space="preserve" font-family="Lora-Italic,Lora" font-style="italic" font-size="84.0" fill="#FEFFFF" transform="matrix(1.00, 0.00, -0.00, -1.00, 1066.9, 201.4)">t</text><text xml:space="preserve" font-family="Lora-Italic,Lora" font-style="italic" font-size="84.0" fill="#FEFFFF" transform="matrix(1.00, 0.00, -0.00, -1.00, 1097.5, 201.4)">h</text><text xml:space="preserve" font-family="Lora-Italic,Lora" font-style="italic" font-size="84.0" fill="#FEFFFF" transform="matrix(1.00, 0.00, -0.00, -1.00, 1145.5, 201.4)">i</text><text xml:space="preserve" font-family="Lora-Italic,Lora" font-style="italic" font-size="84.0" fill="#FEFFFF" transform="matrix(1.00, 0.00, -0.00, -1.00, 1172.7, 201.4)">n</text><text xml:space="preserve" font-family="Lora-Italic,Lora" font-style="italic" font-size="84.0" fill="#FEFFFF" transform="matrix(1.00, 0.00, -0.00, -1.00, 1224.3, 201.4)">g</text><text xml:space="preserve" font-family="Lora-Italic,Lora" font-style="italic" font-size="84.0" fill="#FEFFFF" transform="matrix(1.00, 0.00, -0.00, -1.00, 1267.7, 201.4)"> </text><text xml:space="preserve" font-family="Lora-Italic,Lora" font-style="italic" font-size="84.0" fill="#FEFFFF" transform="matrix(1.00, 0.00, -0.00, -1.00, 562.1, 128.6)">a</text><text xml:space="preserve" font-family="Lora-Italic,Lora" font-style="italic" font-size="84.0" fill="#FEFFFF" transform="matrix(1.00, 0.00, -0.00, -1.00, 608.2, 128.6)">w</text><text xml:space="preserve" font-family="Lora-Italic,Lora" font-style="italic" font-size="84.0" fill="#FEFFFF" transform="matrix(1.00, 0.00, -0.00, -1.00, 675.5, 128.6)">e</text><text xml:space="preserve" font-family="Lora-Italic,Lora" font-style="italic" font-size="84.0" fill="#FEFFFF" transform="matrix(1.00, 0.00, -0.00, -1.00, 715.5, 128.6)">s</text><text xml:space="preserve" font-family="Lora-Italic,Lora" font-style="italic" font-size="84.0" fill="#FEFFFF" transform="matrix(1.00, 0.00, -0.00, -1.00, 751.4, 128.6)">o</text><text xml:space="preserve" font-family="Lora-Italic,Lora" font-style="italic" font-size="84.0" fill="#FEFFFF" transform="matrix(1.00, 0.00, -0.00, -1.00, 795.3, 128.6)">m</text><text xml:space="preserve" font-family="Lora-Italic,Lora" font-style="italic" font-size="84.0" fill="#FEFFFF" transform="matrix(1.00, 0.00, -0.00, -1.00, 868.8, 128.6)">e</text><text xml:space="preserve" font-family="Lora-Italic,Lora" font-style="italic" font-size="84.0" fill="#FEFFFF" transform="matrix(1.00, 0.00, -0.00, -1.00, 908.8, 128.6)"> </text><text xml:space="preserve" font-family="Lora-Italic,Lora" font-style="italic" font-size="84.0" fill="#FEFFFF" transform="matrix(1.00, 0.00, -0.00, -1.00, 931.0, 128.6)">i</text><text xml:space="preserve" font-family="Lora-Italic,Lora" font-style="italic" font-size="84.0" fill="#FEFFFF" transform="matrix(1.00, 0.00, -0.00, -1.00, 958.1, 128.6)">n</text><text xml:space="preserve" font-family="Lora-Italic,Lora" font-style="italic" font-size="84.0" fill="#FEFFFF" transform="matrix(1.00, 0.00, -0.00, -1.00, 1009.7, 128.6)"> </text><text xml:space="preserve" font-family="Lora-Italic,Lora" font-style="italic" font-size="84.0" fill="#FEFFFF" transform="matrix(1.00, 0.00, -0.00, -1.00, 1031.9, 128.6)">2</text><text xml:space="preserve" font-family="Lora-Italic,Lora" font-style="italic" font-size="84.0" fill="#FEFFFF" transform="matrix(1.00, 0.00, -0.00, -1.00, 1076.0, 128.6)">4</text><text xml:space="preserve" font-family="Lora-Italic,Lora" font-style="italic" font-size="84.0" fill="#FEFFFF" transform="matrix(1.00, 0.00, -0.00, -1.00, 1120.4, 128.6)"> </text><text xml:space="preserve" font-family="Lora-Italic,Lora" font-style="italic" font-size="84.0" fill="#FEFFFF" transform="matrix(1.00, 0.00, -0.00, -1.00, 1142.5, 128.6)">h</text><text xml:space="preserve" font-family="Lora-Italic,Lora" font-style="italic" font-size="84.0" fill="#FEFFFF" transform="matrix(1.00, 0.00, -0.00, -1.00, 1190.5, 128.6)">o</text><text xml:space="preserve" font-family="Lora-Italic,Lora" font-style="italic" font-size="84.0" fill="#FEFFFF" transform="matrix(1.00, 0.00, -0.00, -1.00, 1234.3, 128.6)">u</text><text xml:space="preserve" font-family="Lora-Italic,Lora" font-style="italic" font-size="84.0" fill="#FEFFFF" transform="matrix(1.00, 0.00, -0.00, -1.00, 1284.2, 128.6)">r</text><text xml:space="preserve" font-family="Lora-Italic,Lora" font-style="italic" font-size="84.0" fill="#FEFFFF" transform="matrix(1.00, 0.00, -0.00, -1.00, 1322.1, 128.6)">s</text></g></g></g></svg>