<?xml version="1.0" encoding="UTF-8" standalone="no"?><svg xmlns="http://www.w3.org/2000/svg" xmlns:xlink="http://www.w3.org/1999/xlink" clip-rule="evenodd" stroke-miterlimit="10" viewBox="0 0 1920 1080"><desc>SVG generated by Keynote</desc><defs><pattern id="patternP1" patternUnits="userSpaceOnUse" width="256" height="256" viewBox="0 0 256 256"><image xlink:href="BEB07008D800FB722B38F7DC203B5054.jpeg" width="256.00" height="256.00"></image></pattern></defs><g transform="matrix(1.00, 0.00, -0.00, -1.00, 0.0, 1080.0)"><g><clipPath id="clip0x6000058a4e00"><path d="M 0.0 1080.0 L 1920.0 1080.0 L 1920.0 0.0 L 0.0 0.0 Z M 0.0 1080.0 "></path></clipPath><g clip-path="url(#clip0x6000058a4e00)"><path d="M 0.0 0.0 L 1920.0 0.0 L 1920.0 1080.0 L 0.0 1080.0 Z M 0.0 0.0 " fill="url(#patternP1)"></path></g></g><image xlink:href="CC9AC753E1BB7CEB3CC88638BB5752F2.jpeg" width="2048.00" height="1366.00" transform="matrix(1.05, 0.00, -0.00, -1.05, -339.1, 1257.5)"></image><image xlink:href="3023ECF058EAD27750EA82C6AB610C53.png" width="720.00" height="960.00" transform="matrix(2.67, 0.00, -0.00, -2.67, -2.7, 1788.3)"></image><path d="M 440.2 113.2 L 440.0 397.8 C 440.0 424.1 461.5 445.0 487.7 445.0 L 1432.3 445.0 C 1458.5 445.0 1480.0 424.1 1480.0 397.8 L 1480.0 113.2 C 1480.0 86.9 1458.5 66.0 1432.3 66.0 L 487.7 66.0 C 461.5 66.0 440.2 86.9 440.2 113.2 Z M 440.2 113.2 " fill="#000000" fill-opacity="0.78"></path><g><clipPath id="clip0x600005ab2fc0"><path d="M 403.6 53.0 L 1516.4 53.0 L 1516.4 484.3 L 403.6 484.3 Z M 403.6 53.0 "></path></clipPath><g clip-path="url(#clip0x600005ab2fc0)"><text xml:space="preserve" font-family="SourceSansPro-Black,Source Sans Pro" font-weight="bold" font-size="142.0" fill="#FEFFFF" transform="matrix(1.00, 0.00, -0.00, -1.00, 544.8, 299.5)">F</text><text xml:space="preserve" font-family="SourceSansPro-Black,Source Sans Pro" font-weight="bold" font-size="142.0" fill="#FEFFFF" transform="matrix(1.00, 0.00, -0.00, -1.00, 615.2, 299.5)">A</text><text xml:space="preserve" font-family="SourceSansPro-Black,Source Sans Pro" font-weight="bold" font-size="142.0" fill="#FEFFFF" transform="matrix(1.00, 0.00, -0.00, -1.00, 698.1, 299.5)">L</text><text xml:space="preserve" font-family="SourceSansPro-Black,Source Sans Pro" font-weight="bold" font-size="142.0" fill="#FEFFFF" transform="matrix(1.00, 0.00, -0.00, -1.00, 773.4, 299.5)">L</text><text xml:space="preserve" font-family="SourceSansPro-Black,Source Sans Pro" font-weight="bold" font-size="142.0" fill="#FEFFFF" transform="matrix(1.00, 0.00, -0.00, -1.00, 848.7, 299.5)"> </text><text xml:space="preserve" font-family="SourceSansPro-Black,Source Sans Pro" font-weight="bold" font-size="142.0" fill="#FEFFFF" transform="matrix(1.00, 0.00, -0.00, -1.00, 878.5, 299.5)">I</text><text xml:space="preserve" font-family="SourceSansPro-Black,Source Sans Pro" font-weight="bold" font-size="142.0" fill="#FEFFFF" transform="matrix(1.00, 0.00, -0.00, -1.00, 923.4, 299.5)">N</text><text xml:space="preserve" font-family="SourceSansPro-Black,Source Sans Pro" font-weight="bold" font-size="142.0" fill="#FEFFFF" transform="matrix(1.00, 0.00, -0.00, -1.00, 1018.8, 299.5)"> </text><text xml:space="preserve" font-family="SourceSansPro-Black,Source Sans Pro" font-weight="bold" font-size="142.0" fill="#FEFFFF" transform="matrix(1.00, 0.00, -0.00, -1.00, 1048.6, 299.5)">L</text><text xml:space="preserve" font-family="SourceSansPro-Black,Source Sans Pro" font-weight="bold" font-size="142.0" fill="#FEFFFF" transform="matrix(1.00, 0.00, -0.00, -1.00, 1118.2, 299.5)">O</text><text xml:space="preserve" font-family="SourceSansPro-Black,Source Sans Pro" font-weight="bold" font-size="142.0" fill="#FEFFFF" transform="matrix(1.00, 0.00, -0.00, -1.00, 1215.0, 299.5)">V</text><text xml:space="preserve" font-family="SourceSansPro-Black,Source Sans Pro" font-weight="bold" font-size="142.0" fill="#FEFFFF" transform="matrix(1.00, 0.00, -0.00, -1.00, 1296.2, 299.5)">E</text><text xml:space="preserve" font-family="SourceSansPro-Black,Source Sans Pro" font-weight="bold" font-size="142.0" fill="#FEFFFF" transform="matrix(1.00, 0.00, -0.00, -1.00, 1375.2, 299.5)"> </text><text xml:space="preserve" font-family="Lora-Italic,Lora" font-style="italic" font-size="142.0" fill="#FEFFFF" transform="matrix(1.00, 0.00, -0.00, -1.00, 625.8, 138.4)">w</text><text xml:space="preserve" font-family="Lora-Italic,Lora" font-style="italic" font-size="142.0" fill="#FEFFFF" transform="matrix(1.00, 0.00, -0.00, -1.00, 739.6, 138.4)">i</text><text xml:space="preserve" font-family="Lora-Italic,Lora" font-style="italic" font-size="142.0" fill="#FEFFFF" transform="matrix(1.00, 0.00, -0.00, -1.00, 785.5, 138.4)">t</text><text xml:space="preserve" font-family="Lora-Italic,Lora" font-style="italic" font-size="142.0" fill="#FEFFFF" transform="matrix(1.00, 0.00, -0.00, -1.00, 837.3, 138.4)">h</text><text xml:space="preserve" font-family="SourceSansPro-Black,Source Sans Pro" font-weight="bold" font-size="142.0" fill="#FEFFFF" transform="matrix(1.00, 0.00, -0.00, -1.00, 918.5, 138.4)"> </text><text xml:space="preserve" font-family="SourceSansPro-Black,Source Sans Pro" font-weight="bold" font-size="142.0" fill="#FEFFFF" transform="matrix(1.00, 0.00, -0.00, -1.00, 948.3, 138.4)">C</text><text xml:space="preserve" font-family="SourceSansPro-Black,Source Sans Pro" font-weight="bold" font-size="142.0" fill="#FEFFFF" transform="matrix(1.00, 0.00, -0.00, -1.00, 1025.8, 138.4)">O</text><text xml:space="preserve" font-family="SourceSansPro-Black,Source Sans Pro" font-weight="bold" font-size="142.0" fill="#FEFFFF" transform="matrix(1.00, 0.00, -0.00, -1.00, 1124.1, 138.4)">D</text><text xml:space="preserve" font-family="SourceSansPro-Black,Source Sans Pro" font-weight="bold" font-size="142.0" fill="#FEFFFF" transform="matrix(1.00, 0.00, -0.00, -1.00, 1215.3, 138.4)">E</text></g></g></g></svg>