<?xml version="1.0" encoding="UTF-8" standalone="no"?><svg xmlns="http://www.w3.org/2000/svg" xmlns:xlink="http://www.w3.org/1999/xlink" clip-rule="evenodd" stroke-miterlimit="10" viewBox="0 0 1920 1080"><desc>SVG generated by Keynote</desc><defs></defs><g transform="matrix(1.00, 0.00, -0.00, -1.00, 0.0, 1080.0)"><path d="M 0.0 1080.0 L 1920.0 1080.0 L 1920.0 0.0 L 0.0 0.0 Z M 0.0 1080.0 " fill="#000000"></path><image xlink:href="FAF349D3273A405E6C6038C3E4573F39.png" width="1024.00" height="764.00" transform="matrix(1.89, 0.00, -0.00, -1.89, -5.5, 1260.4)"></image><path d="M 440.2 113.2 L 440.0 397.8 C 440.0 424.1 461.5 445.0 487.7 445.0 L 1432.3 445.0 C 1458.5 445.0 1480.0 424.1 1480.0 397.8 L 1480.0 113.2 C 1480.0 86.9 1458.5 66.0 1432.3 66.0 L 487.7 66.0 C 461.5 66.0 440.2 86.9 440.2 113.2 Z M 440.2 113.2 " fill="#000000" fill-opacity="0.78"></path><g><clipPath id="clip0x6080056a0240"><path d="M 401.2 65.7 L 1518.8 65.7 L 1518.8 445.3 L 401.2 445.3 Z M 401.2 65.7 "></path></clipPath><g clip-path="url(#clip0x6080056a0240)"><text xml:space="preserve" font-family="SourceSansPro-Black,Source Sans Pro" font-weight="bold" font-size="142.0" fill="#FEFFFF" transform="matrix(1.00, 0.00, -0.00, -1.00, 584.8, 247.6)">N</text><text xml:space="preserve" font-family="SourceSansPro-Black,Source Sans Pro" font-weight="bold" font-size="142.0" fill="#FEFFFF" transform="matrix(1.00, 0.00, -0.00, -1.00, 680.3, 247.6)">O</text><text xml:space="preserve" font-family="SourceSansPro-Black,Source Sans Pro" font-weight="bold" font-size="142.0" fill="#FEFFFF" transform="matrix(1.00, 0.00, -0.00, -1.00, 775.7, 247.6)">T</text><text xml:space="preserve" font-family="SourceSansPro-Black,Source Sans Pro" font-weight="bold" font-size="142.0" fill="#FEFFFF" transform="matrix(1.00, 0.00, -0.00, -1.00, 855.8, 247.6)"> </text><text xml:space="preserve" font-family="SourceSansPro-Black,Source Sans Pro" font-weight="bold" font-size="142.0" fill="#FEFFFF" transform="matrix(1.00, 0.00, -0.00, -1.00, 885.6, 247.6)">T</text><text xml:space="preserve" font-family="SourceSansPro-Black,Source Sans Pro" font-weight="bold" font-size="142.0" fill="#FEFFFF" transform="matrix(1.00, 0.00, -0.00, -1.00, 961.4, 247.6)">O</text><text xml:space="preserve" font-family="SourceSansPro-Black,Source Sans Pro" font-weight="bold" font-size="142.0" fill="#FEFFFF" transform="matrix(1.00, 0.00, -0.00, -1.00, 1059.7, 247.6)">D</text><text xml:space="preserve" font-family="SourceSansPro-Black,Source Sans Pro" font-weight="bold" font-size="142.0" fill="#FEFFFF" transform="matrix(1.00, 0.00, -0.00, -1.00, 1149.4, 247.6)">A</text><text xml:space="preserve" font-family="SourceSansPro-Black,Source Sans Pro" font-weight="bold" font-size="142.0" fill="#FEFFFF" transform="matrix(1.00, 0.00, -0.00, -1.00, 1229.5, 247.6)">Y</text><text xml:space="preserve" font-family="SourceSansPro-Black,Source Sans Pro" font-weight="bold" font-size="142.0" fill="#FEFFFF" transform="matrix(1.00, 0.00, -0.00, -1.00, 1289.7, 247.6)">.</text><text xml:space="preserve" font-family="SourceSansPro-Black,Source Sans Pro" font-weight="bold" font-size="142.0" fill="#FEFFFF" transform="matrix(1.00, 0.00, -0.00, -1.00, 1335.2, 247.6)"> </text><text xml:space="preserve" font-family="Lora-Italic,Lora" font-style="italic" font-size="84.0" fill="#FEFFFF" transform="matrix(1.00, 0.00, -0.00, -1.00, 613.6, 145.5)">T</text><text xml:space="preserve" font-family="Lora-Italic,Lora" font-style="italic" font-size="84.0" fill="#FEFFFF" transform="matrix(1.00, 0.00, -0.00, -1.00, 662.9, 145.5)">o</text><text xml:space="preserve" font-family="Lora-Italic,Lora" font-style="italic" font-size="84.0" fill="#FEFFFF" transform="matrix(1.00, 0.00, -0.00, -1.00, 706.7, 145.5)">d</text><text xml:space="preserve" font-family="Lora-Italic,Lora" font-style="italic" font-size="84.0" fill="#FEFFFF" transform="matrix(1.00, 0.00, -0.00, -1.00, 753.3, 145.5)">a</text><text xml:space="preserve" font-family="Lora-Italic,Lora" font-style="italic" font-size="84.0" fill="#FEFFFF" transform="matrix(1.00, 0.00, -0.00, -1.00, 799.4, 145.5)">y</text><text xml:space="preserve" font-family="Lora-Italic,Lora" font-style="italic" font-size="84.0" fill="#FEFFFF" transform="matrix(1.00, 0.00, -0.00, -1.00, 842.6, 145.5)"> </text><text xml:space="preserve" font-family="Lora-Italic,Lora" font-style="italic" font-size="84.0" fill="#FEFFFF" transform="matrix(1.00, 0.00, -0.00, -1.00, 864.7, 145.5)">i</text><text xml:space="preserve" font-family="Lora-Italic,Lora" font-style="italic" font-size="84.0" fill="#FEFFFF" transform="matrix(1.00, 0.00, -0.00, -1.00, 891.9, 145.5)">s</text><text xml:space="preserve" font-family="Lora-Italic,Lora" font-style="italic" font-size="84.0" fill="#FEFFFF" transform="matrix(1.00, 0.00, -0.00, -1.00, 927.8, 145.5)"> </text><text xml:space="preserve" font-family="Lora-Italic,Lora" font-style="italic" font-size="84.0" fill="#FEFFFF" transform="matrix(1.00, 0.00, -0.00, -1.00, 949.9, 145.5)">C</text><text xml:space="preserve" font-family="Lora-Italic,Lora" font-style="italic" font-size="84.0" fill="#FEFFFF" transform="matrix(1.00, 0.00, -0.00, -1.00, 1007.5, 145.5)">o</text><text xml:space="preserve" font-family="Lora-Italic,Lora" font-style="italic" font-size="84.0" fill="#FEFFFF" transform="matrix(1.00, 0.00, -0.00, -1.00, 1051.4, 145.5)">d</text><text xml:space="preserve" font-family="Lora-Italic,Lora" font-style="italic" font-size="84.0" fill="#FEFFFF" transform="matrix(1.00, 0.00, -0.00, -1.00, 1097.9, 145.5)">e</text><text xml:space="preserve" font-family="Lora-Italic,Lora" font-style="italic" font-size="84.0" fill="#FEFFFF" transform="matrix(1.00, 0.00, -0.00, -1.00, 1136.6, 145.5)">D</text><text xml:space="preserve" font-family="Lora-Italic,Lora" font-style="italic" font-size="84.0" fill="#FEFFFF" transform="matrix(1.00, 0.00, -0.00, -1.00, 1198.6, 145.5)">a</text><text xml:space="preserve" font-family="Lora-Italic,Lora" font-style="italic" font-size="84.0" fill="#FEFFFF" transform="matrix(1.00, 0.00, -0.00, -1.00, 1244.7, 145.5)">y</text><text xml:space="preserve" font-family="Lora-Italic,Lora" font-style="italic" font-size="84.0" fill="#FEFFFF" transform="matrix(1.00, 0.00, -0.00, -1.00, 1286.9, 145.5)">.</text><text xml:space="preserve" font-family="Lora-Italic,Lora" font-style="italic" font-size="84.0" fill="#FEFFFF" transform="matrix(1.00, 0.00, -0.00, -1.00, 1306.4, 145.5)"> </text></g></g></g></svg>