<?xml version="1.0" encoding="UTF-8" standalone="no"?><svg xmlns="http://www.w3.org/2000/svg" xmlns:xlink="http://www.w3.org/1999/xlink" clip-rule="evenodd" stroke-miterlimit="10" viewBox="0 0 1920 1080"><desc>SVG generated by Keynote</desc><defs></defs><g transform="matrix(1.00, 0.00, -0.00, -1.00, 0.0, 1080.0)"><path d="M 0.0 1080.0 L 1920.0 1080.0 L 1920.0 0.0 L 0.0 0.0 Z M 0.0 1080.0 " fill="#000000"></path><image xlink:href="../../39BB0AB0-C6E9-4EB3-B10B-32FEDC1C7D1A/assets/1A549E6A364B0E2761CE9A5B4A590155.png" width="1069.00" height="953.00" transform="matrix(1.81, 0.00, -0.00, -1.81, -8.7, 746.5)"></image><path d="M 130.6 814.5 L 131.0 965.5 C 131.0 991.7 151.9 1013.0 178.1 1013.0 L 1741.9 1013.0 C 1768.1 1013.0 1789.0 991.7 1789.0 965.5 L 1789.0 814.5 C 1789.0 788.3 1768.1 767.0 1741.9 767.0 L 178.1 767.0 C 151.9 767.0 130.6 788.3 130.6 814.5 Z M 130.6 814.5 " fill="#000000" fill-opacity="0.78"></path><g><clipPath id="clip0x6000058b5d80"><path d="M 94.3 756.2 L 1825.7 756.2 L 1825.7 1024.5 L 94.3 1024.5 Z M 94.3 756.2 "></path></clipPath><g clip-path="url(#clip0x6000058b5d80)"><text xml:space="preserve" font-family="SourceSansPro-Black,Source Sans Pro" font-weight="bold" font-size="142.0" fill="#FEFFFF" transform="matrix(1.00, 0.00, -0.00, -1.00, 241.5, 839.6)">O</text><text xml:space="preserve" font-family="SourceSansPro-Black,Source Sans Pro" font-weight="bold" font-size="142.0" fill="#FEFFFF" transform="matrix(1.00, 0.00, -0.00, -1.00, 339.7, 839.6)">P</text><text xml:space="preserve" font-family="SourceSansPro-Black,Source Sans Pro" font-weight="bold" font-size="142.0" fill="#FEFFFF" transform="matrix(1.00, 0.00, -0.00, -1.00, 427.5, 839.6)">E</text><text xml:space="preserve" font-family="SourceSansPro-Black,Source Sans Pro" font-weight="bold" font-size="142.0" fill="#FEFFFF" transform="matrix(1.00, 0.00, -0.00, -1.00, 506.5, 839.6)">N</text><text xml:space="preserve" font-family="SourceSansPro-Black,Source Sans Pro" font-weight="bold" font-size="142.0" fill="#FEFFFF" transform="matrix(1.00, 0.00, -0.00, -1.00, 601.9, 839.6)">D</text><text xml:space="preserve" font-family="SourceSansPro-Black,Source Sans Pro" font-weight="bold" font-size="142.0" fill="#FEFFFF" transform="matrix(1.00, 0.00, -0.00, -1.00, 691.6, 839.6)">A</text><text xml:space="preserve" font-family="SourceSansPro-Black,Source Sans Pro" font-weight="bold" font-size="142.0" fill="#FEFFFF" transform="matrix(1.00, 0.00, -0.00, -1.00, 768.9, 839.6)">T</text><text xml:space="preserve" font-family="SourceSansPro-Black,Source Sans Pro" font-weight="bold" font-size="142.0" fill="#FEFFFF" transform="matrix(1.00, 0.00, -0.00, -1.00, 843.3, 839.6)">A</text><text xml:space="preserve" font-family="SourceSansPro-Black,Source Sans Pro" font-weight="bold" font-size="142.0" fill="#FEFFFF" transform="matrix(1.00, 0.00, -0.00, -1.00, 926.2, 839.6)">P</text><text xml:space="preserve" font-family="SourceSansPro-Black,Source Sans Pro" font-weight="bold" font-size="142.0" fill="#FEFFFF" transform="matrix(1.00, 0.00, -0.00, -1.00, 1014.0, 839.6)">H</text><text xml:space="preserve" font-family="SourceSansPro-Black,Source Sans Pro" font-weight="bold" font-size="142.0" fill="#FEFFFF" transform="matrix(1.00, 0.00, -0.00, -1.00, 1110.8, 839.6)">I</text><text xml:space="preserve" font-family="SourceSansPro-Black,Source Sans Pro" font-weight="bold" font-size="142.0" fill="#FEFFFF" transform="matrix(1.00, 0.00, -0.00, -1.00, 1155.7, 839.6)">L</text><text xml:space="preserve" font-family="SourceSansPro-Black,Source Sans Pro" font-weight="bold" font-size="142.0" fill="#FEFFFF" transform="matrix(1.00, 0.00, -0.00, -1.00, 1230.9, 839.6)">L</text><text xml:space="preserve" font-family="SourceSansPro-Black,Source Sans Pro" font-weight="bold" font-size="142.0" fill="#FEFFFF" transform="matrix(1.00, 0.00, -0.00, -1.00, 1293.4, 839.6)">Y</text><text xml:space="preserve" font-family="SourceSansPro-Black,Source Sans Pro" font-weight="bold" font-size="142.0" fill="#FEFFFF" transform="matrix(1.00, 0.00, -0.00, -1.00, 1353.6, 839.6)">.</text><text xml:space="preserve" font-family="SourceSansPro-Black,Source Sans Pro" font-weight="bold" font-size="142.0" fill="#FEFFFF" transform="matrix(1.00, 0.00, -0.00, -1.00, 1399.1, 839.6)">O</text><text xml:space="preserve" font-family="SourceSansPro-Black,Source Sans Pro" font-weight="bold" font-size="142.0" fill="#FEFFFF" transform="matrix(1.00, 0.00, -0.00, -1.00, 1497.3, 839.6)">R</text><text xml:space="preserve" font-family="SourceSansPro-Black,Source Sans Pro" font-weight="bold" font-size="142.0" fill="#FEFFFF" transform="matrix(1.00, 0.00, -0.00, -1.00, 1586.8, 839.6)">G</text></g></g></g></svg>