<?xml version="1.0" encoding="UTF-8" standalone="no"?><svg xmlns="http://www.w3.org/2000/svg" xmlns:xlink="http://www.w3.org/1999/xlink" clip-rule="evenodd" stroke-miterlimit="10" viewBox="0 0 1920 1080"><desc>SVG generated by Keynote</desc><defs></defs><g transform="matrix(1.00, 0.00, -0.00, -1.00, 0.0, 1080.0)"><path d="M 0.0 1080.0 L 1920.0 1080.0 L 1920.0 0.0 L 0.0 0.0 Z M 0.0 1080.0 " fill="#FEFFFF"></path><text xml:space="preserve" font-family="SourceSansPro-Black,Source Sans Pro" font-weight="bold" font-size="142.0" fill="#000000" transform="matrix(1.00, 0.00, -0.00, -1.00, 606.3, 839.6)">S</text><text xml:space="preserve" font-family="SourceSansPro-Black,Source Sans Pro" font-weight="bold" font-size="142.0" fill="#000000" transform="matrix(1.00, 0.00, -0.00, -1.00, 686.4, 839.6)">P</text><text xml:space="preserve" font-family="SourceSansPro-Black,Source Sans Pro" font-weight="bold" font-size="142.0" fill="#000000" transform="matrix(1.00, 0.00, -0.00, -1.00, 774.1, 839.6)">O</text><text xml:space="preserve" font-family="SourceSansPro-Black,Source Sans Pro" font-weight="bold" font-size="142.0" fill="#000000" transform="matrix(1.00, 0.00, -0.00, -1.00, 872.4, 839.6)">N</text><text xml:space="preserve" font-family="SourceSansPro-Black,Source Sans Pro" font-weight="bold" font-size="142.0" fill="#000000" transform="matrix(1.00, 0.00, -0.00, -1.00, 967.8, 839.6)">S</text><text xml:space="preserve" font-family="SourceSansPro-Black,Source Sans Pro" font-weight="bold" font-size="142.0" fill="#000000" transform="matrix(1.00, 0.00, -0.00, -1.00, 1047.9, 839.6)">O</text><text xml:space="preserve" font-family="SourceSansPro-Black,Source Sans Pro" font-weight="bold" font-size="142.0" fill="#000000" transform="matrix(1.00, 0.00, -0.00, -1.00, 1146.2, 839.6)">R</text><text xml:space="preserve" font-family="SourceSansPro-Black,Source Sans Pro" font-weight="bold" font-size="142.0" fill="#000000" transform="matrix(1.00, 0.00, -0.00, -1.00, 1233.6, 839.6)">S</text><image xlink:href="E15815D9C3CCDEE314A195C7DD349DB7.jpeg" width="256.00" height="105.00" transform="matrix(1.55, 0.00, -0.00, -1.55, 142.2, 692.4)"></image><image xlink:href="769516AF5E06013D5ED21F158AA292C7.jpeg" width="256.00" height="64.00" transform="matrix(1.82, 0.00, -0.00, -1.82, 702.7, 632.9)"></image><image xlink:href="CD7424908DFE32B002DD2C6DAE856C81.jpeg" width="256.00" height="51.00" transform="matrix(1.75, 0.00, -0.00, -1.75, 1332.4, 642.3)"></image><image xlink:href="75ED8AE09598BC45BFBCB9AC20354055.jpeg" width="256.00" height="129.00" transform="matrix(1.26, 0.00, -0.00, -1.26, 140.1, 389.7)"></image><image xlink:href="502D1D8FC789FF118E9B863FF3A611E9.jpeg" width="256.00" height="73.00" transform="matrix(1.32, 0.00, -0.00, -1.32, 600.1, 356.4)"></image><image xlink:href="74E305CB1063A23845EB9985BB4235DF.jpeg" width="256.00" height="148.00" transform="matrix(1.00, 0.00, -0.00, -1.00, 1074.2, 382.3)"></image><image xlink:href="57B2818CFCFFE885A0253AA8E3E8F8CC.jpeg" width="256.00" height="201.00" transform="matrix(0.86, 0.00, -0.00, -0.86, 1536.2, 394.5)"></image></g></svg>